HIERARCHY
ROOT Hips
{
	OFFSET 0 0 0
	CHANNELS 6 Xposition Yposition Zposition Zrotation Yrotation Xrotation
	JOINT LeftThigh
	{
		OFFSET 8.209213 0 -5.776854
		CHANNELS 3 Zrotation Yrotation Xrotation
		JOINT LeftLeg
		{
			OFFSET 0 0 -41.350112
			CHANNELS 3 Zrotation Yrotation Xrotation
			JOINT LeftFoot
			{
				OFFSET 0 0 -38.420225
				CHANNELS 3 Zrotation Yrotation Xrotation
				End Site
				{
					OFFSET 0 -13.011281 -4.889596
				}
			}
		}
	}
	JOINT RightThigh
	{
		OFFSET -8.209213 0 -5.776854
		CHANNELS 3 Zrotation Yrotation Xrotation
		JOINT RightLeg
		{
			OFFSET 0 0 -41.350112
			CHANNELS 3 Zrotation Yrotation Xrotation
			JOINT RightFoot
			{
				OFFSET 0 0 -38.420225
				CHANNELS 3 Zrotation Yrotation Xrotation
				End Site
				{
					OFFSET 0 -13.011281 -4.889596
				}
			}
		}
	}
	JOINT SpineLow
	{
		OFFSET 0 0 4.606742
		CHANNELS 3 Zrotation Yrotation Xrotation
		JOINT SpineMid
		{
			OFFSET 0 0 12.592067
			CHANNELS 3 Zrotation Yrotation Xrotation
			JOINT Chest
			{
				OFFSET 0 0 12.592067
				CHANNELS 3 Zrotation Yrotation Xrotation
				JOINT LeftShoulder
				{
					OFFSET 7.370787 1.382022 9.213483
					CHANNELS 3 Zrotation Yrotation Xrotation
					JOINT LeftArm
					{
						OFFSET 8.937079 0 4.146067
						CHANNELS 3 Zrotation Yrotation Xrotation
						JOINT LeftForearm
						{
							OFFSET 0 0 25.158337
							CHANNELS 3 Zrotation Yrotation Xrotation
							JOINT LeftHand
							{
								OFFSET 0 0 24.597236
								CHANNELS 3 Zrotation Yrotation Xrotation
							}
						}
					}
				}
				JOINT RightShoulder
				{
					OFFSET -7.370787 1.382022 9.213483
					CHANNELS 3 Zrotation Yrotation Xrotation
					JOINT RightArm
					{
						OFFSET -8.937079 0 4.146067
						CHANNELS 3 Zrotation Yrotation Xrotation
						JOINT RightForearm
						{
							OFFSET 0 0 -25.158337
							CHANNELS 3 Zrotation Yrotation Xrotation
							JOINT RightHand
							{
								OFFSET 0 0 -24.597236
								CHANNELS 3 Zrotation Yrotation Xrotation
							}
						}
					}
				}
				JOINT Neck
				{
					OFFSET 0 0 14.741573
					CHANNELS 3 Zrotation Yrotation Xrotation
					JOINT Head
					{
						OFFSET 0 0 11.05618
						CHANNELS 3 Zrotation Yrotation Xrotation
						End Site
						{
							OFFSET 0 0 7.325843
						}
					}
				}
			}
		}
	}
}
MOTION
Frames: 17
Frame Time: 0.01
143.560244208075 87.804352540507 -156.319576222158 -12.517267 -46.249657 -75.413402 -2.255109 -13.464246 -25.759627 -7.042191 4.8471 36.728245 4.251512 4.300547 0.721631 -38.013634 22.101133 -37.494536 -13.868857 3.446324 34.700815 6.216937 -6.264043 1.901453 3.952422 1.739123 -0.259361 10.802125 4.781434 -0.423335 10.802125 4.781433 -0.423335 0.644955 -2.302524 6.268237 77.102254 45.444019 125.057678 -32.502859 16.197375 89.749362 78.257977 5.96302 9.752303 9.849464 -14.973215 2.170439 91.293562 57.29945 4.85262 5.9613 -37.95229 -138.907213 68.92565 8.778819 22.864601 -35.88385 -8.439329 4.353984 -26.805181 -6.612345 2.771197
143.482226367331 87.6311965325965 -156.528043256262 -12.374707 -48.711273 -75.839683 -2.639576 -13.529688 -24.87078 -5.890715 4.938714 37.268994 3.970165 4.397006 0.618851 -38.898029 21.670857 -38.002693 -13.464582 3.337504 34.190652 7.255408 -6.434005 2.388612 3.992589 1.847117 -0.15393 10.921211 5.058461 -0.114782 10.921211 5.058461 -0.114782 0.902487 -2.202473 5.477589 77.828616 44.091479 124.996573 -31.306071 20.032097 93.408901 76.400631 5.831589 8.37605 9.836085 -14.699181 1.883215 91.64135 57.736264 5.576691 5.362465 -36.200357 -139.601731 69.444209 8.408565 23.78566 -35.095678 -8.455621 3.953052 -26.220053 -6.594607 2.479438
143.283367122118 87.4332356974428 -156.744305437746 -12.127621 -51.009179 -76.329664 -2.945026 -13.612768 -24.028327 -4.721651 5.092672 37.84083 3.795208 4.491347 0.534627 -39.776295 21.393563 -38.606882 -12.469363 3.189575 33.693742 7.998336 -7.216366 3.056209 4.00178 1.944072 -0.0516 10.956056 5.305708 0.181411 10.956056 5.305708 0.181411 1.101778 -2.218918 4.78643 78.616542 42.768673 125.484852 -29.781118 22.905218 97.071819 75.065735 5.564926 7.091926 9.815854 -14.382063 1.576445 91.918128 58.124499 6.420425 4.617462 -34.13325 -140.359522 70.063162 7.897123 24.844185 -34.281744 -8.40216 3.508646 -25.617474 -6.522811 2.159614
143.083607097127 87.1799232666642 -156.965945379503 -11.862782 -53.084598 -76.787284 -3.236155 -13.772559 -23.411887 -3.40445 5.276427 38.624394 3.65673 4.544653 0.471207 -40.399607 21.209503 -39.304108 -11.266472 2.799658 34.209651 8.566212 -7.723809 2.815787 3.977385 2.014038 0.038129 10.89807 5.481737 0.436066 10.898069 5.481736 0.436066 1.221733 -2.256395 4.300162 79.123563 41.39584 126.299973 -28.4875 24.677268 100.510537 74.071328 5.319183 6.204521 9.768676 -14.050452 1.302381 92.166106 58.499884 7.45835 3.742034 -31.79421 -141.194016 70.739586 7.231165 26.137952 -33.400107 -8.227612 3.030411 -24.966497 -6.358853 1.822139
142.693232411133 86.810365222168 -157.287189614655 -11.506268 -55.018993 -77.291244 -3.557211 -14.066389 -22.955976 -1.836131 5.321316 39.797373 2.840972 4.154561 0.147185 -40.768876 21.068949 -40.333237 -10.72194 2.21675 35.689271 9.137983 -7.549949 2.131095 3.928398 2.064013 0.125531 10.772466 5.60419 0.678916 10.772465 5.60419 0.678916 1.135326 -2.423914 3.929323 79.542017 39.951737 127.607003 -27.660212 25.438777 103.61522 73.095143 5.215912 5.684304 9.71233 -13.710751 1.041276 92.50543 58.918213 8.766662 2.727087 -29.316166 -142.082212 71.445436 6.427565 27.649153 -32.48269 -7.965159 2.525407 -24.28996 -6.128613 1.469421
142.44064779488 86.4520425235566 -157.644954403414 -11.017895 -56.609387 -77.913744 -3.915861 -14.499845 -22.623417 -0.127753 5.651328 40.834968 2.675098 4.172264 0.120097 -41.252257 20.855125 -41.734974 -10.621958 2.011072 37.564375 9.934305 -7.166902 1.735633 3.816605 2.078293 0.207385 10.473529 5.631685 0.895326 10.47353 5.631685 0.895326 1.23817 -2.337549 3.657337 79.243122 38.356909 128.978165 -27.32579 25.486747 106.305376 72.01747 5.20814 5.407853 9.741562 -13.334788 0.822727 92.880565 59.408822 10.35589 1.64484 -26.900105 -143.06801 72.143176 5.446235 29.344969 -31.485139 -7.585748 2.025057 -23.55421 -5.811915 1.126654
142.159367062834 86.0399437176787 -158.115110456958 -10.551639 -58.099856 -78.417716 -3.884013 -15.067816 -22.573801 1.4561 6.073437 41.99935 1.944487 3.824322 0.031652 -41.781026 20.738207 -43.337368 -10.543232 1.606513 39.274324 10.547786 -6.775278 1.83733 3.638883 1.995699 0.298776 9.991585 5.395714 1.11721 9.991585 5.395714 1.11721 1.288247 -1.710038 3.255641 78.849917 36.657811 130.602871 -27.582966 25.252963 108.502773 70.944125 5.283447 5.461077 10.096335 -12.447297 0.505519 93.347241 60.017397 12.260519 0.49918 -24.656008 -144.173077 72.880396 4.275906 31.256011 -30.254218 -6.994143 1.290618 -22.647608 -5.32496 0.620281
141.893074402164 85.5924736921511 -158.658057897246 -10.037725 -59.432215 -78.832822 -3.474326 -15.653107 -22.839304 2.766437 6.571097 43.214983 1.615907 3.929065 0.030785 -42.437906 20.942101 -45.079192 -10.244335 0.758971 40.822645 10.904341 -6.631212 2.077287 3.483178 1.959682 0.306677 9.564597 5.299474 1.120838 9.564597 5.299474 1.120837 1.221281 -1.384451 3.341106 77.708183 35.058144 132.180713 -27.956461 24.687713 110.467483 69.829152 5.371204 5.39553 10.020422 -12.032397 0.468486 93.862132 60.803906 14.373062 -0.742507 -22.567005 -145.354885 73.773444 2.980432 33.174198 -29.219817 -6.465712 0.923042 -21.881733 -4.906713 0.381852
141.591329487343 85.1455313470858 -159.170533795236 -9.712885 -60.534579 -79.017458 -2.666472 -16.260081 -23.288914 3.669772 7.087925 44.436974 1.318222 4.066067 0.047442 -43.036168 21.405293 -46.688849 -10.012694 -0.294908 42.333376 11.02013 -6.743944 2.293189 3.277742 1.879791 0.266223 8.996432 5.091156 0.98282 8.996432 5.091156 0.98282 1.042282 -1.016607 3.688793 76.409746 33.571761 133.970168 -28.56903 23.99917 112.071198 68.90739 5.563211 5.383254 8.437083 -12.20965 0.357067 96.793817 61.080371 17.808558 -2.071873 -20.565167 -146.539768 74.856233 1.565373 34.8697 -28.099699 -5.871355 0.665313 -21.049855 -4.445253 0.22798
141.259815365756 84.7193830380201 -159.635988209328 -9.359371 -61.519801 -79.12759 -1.308248 -16.661455 -23.928664 3.909987 7.74646 45.525028 1.125645 4.143356 0.075132 -43.461969 21.948677 -48.165993 -9.964968 -1.37097 43.74587 11.072151 -6.827123 2.414878 3.041326 1.788418 0.165305 8.339237 4.858721 0.677144 8.339236 4.858721 0.677144 1.039564 -0.513526 4.418513 74.655971 32.3404 135.749145 -29.234423 23.104375 113.37129 68.208864 5.825467 5.320732 8.487224 -11.778951 0.681675 96.800058 62.103002 20.075135 -3.437482 -18.658808 -147.809335 76.025415 -0.141751 36.450005 -26.980445 -5.245192 0.555998 -20.216375 -3.967618 0.18473
140.894573554392 84.3118774965187 -159.739486721176 -9.30737 -62.052286 -78.835157 0.258167 -16.983228 -24.812165 4.05638 8.328767 46.751504 0.82033 4.161789 0.002483 -44.009415 22.136265 -49.428566 -10.012674 -2.22703 45.174851 11.128846 -6.87179 2.363214 2.729317 1.658291 0.02744 7.472966 4.523023 0.262495 7.472965 4.523023 0.262496 0.992241 0.116761 5.414878 72.766598 31.498657 137.521924 -30.001095 21.910934 114.281918 67.72878 6.112541 5.295351 8.531316 -11.240631 1.114856 96.527158 63.339972 22.336625 -4.896934 -16.812715 -149.24723 77.19153 -2.177358 38.016009 -25.893737 -4.677805 0.544313 -19.405319 -3.538962 0.209658
140.518095104668 83.9492085087077 -159.929949019989 -9.31453 -62.494108 -78.459999 2.322098 -16.966665 -25.857328 3.235866 8.829123 47.76351 0.641256 4.190182 -0.01087 -44.328726 22.073235 -50.47972 -9.933484 -2.861164 46.435858 11.233003 -6.914055 2.220747 2.424667 1.538392 -0.105276 6.629139 4.210728 -0.133295 6.629138 4.210728 -0.133295 0.802569 0.808978 6.549086 70.573738 31.05357 139.141596 -31.048227 20.368227 114.689465 67.446217 6.42888 5.444857 8.411834 -10.634525 1.5896 95.888917 64.832078 24.482652 -6.540062 -14.954876 -150.778955 78.307588 -4.43968 39.394064 -24.821879 -4.193936 0.494612 -18.604684 -3.171758 0.200411
140.178305018675 83.635883847761 -159.898068860545 -9.612387 -62.662903 -77.720199 4.649104 -16.743273 -27.124251 2.14026 9.180439 48.771026 1.303483 5.134999 0.260472 -44.618318 21.732998 -51.237496 -9.903278 -3.269603 47.470701 11.286686 -7.029622 2.142071 2.1075 1.410794 -0.23476 5.752941 3.873326 -0.518686 5.752941 3.873326 -0.518686 0.307755 1.701416 7.498414 68.245037 30.712896 140.504365 -32.444121 18.481096 114.570113 67.307464 6.786137 5.954368 8.203532 -10.045491 1.881926 94.807256 66.402821 26.499534 -8.35691 -13.11134 -152.301135 79.470127 -6.879469 40.435999 -24.311868 -4.036034 0.548311 -18.222733 -3.054583 0.250591
139.908779373228 83.373515211955 -159.850223421066 -9.942541 -62.657708 -76.980868 7.010181 -16.30319 -28.421271 0.686627 9.488831 49.628867 1.097627 5.133789 0.230833 -44.808502 21.405091 -51.722378 -9.907679 -3.613777 48.160129 11.270314 -7.112816 2.214906 1.804891 1.293959 -0.344346 4.91932 3.560276 -0.844777 4.91932 3.560275 -0.844776 -0.700276 2.9298 8.031532 66.121026 30.153477 141.579122 -34.079833 16.323221 114.034401 67.354515 7.184383 6.978051 7.82215 -9.46973 2.109145 93.282684 68.128351 28.309972 -10.342947 -11.362787 -153.761701 80.830278 -9.560918 41.128635 -23.449048 -3.79057 0.468369 -17.577458 -2.865913 0.205753
139.585599444154 83.13054544726 -159.525785862987 -10.28935 -62.45911 -76.178922 9.267254 -15.716024 -29.662182 -0.450054 9.530889 50.555395 0.729131 5.134042 0.158186 -45.028939 21.052478 -52.122209 -10.070274 -3.871428 48.739309 11.226616 -7.10547 2.357995 1.512704 1.188104 -0.447908 4.115743 3.274007 -1.150283 4.115743 3.274007 -1.150282 -1.749268 4.051731 8.227092 64.140967 29.553361 142.762631 -35.784372 13.950431 113.240648 67.643139 7.620223 8.682953 7.318496 -8.966471 2.301762 91.650389 70.040741 30.213392 -12.610842 -9.803648 -155.11865 82.319009 -12.580834 41.538809 -22.807334 -3.682854 0.389284 -17.097256 -2.78127 0.154396
139.29180371607 82.9234143083716 -159.428343543016 -10.54908 -62.191594 -75.518104 11.38113 -15.063071 -30.843731 -1.93039 9.56821 51.248941 0.478012 5.244821 0.169509 -45.159755 20.761544 -52.433032 -10.322186 -3.983739 49.278046 11.261431 -7.054261 2.528603 1.296301 1.132544 -0.492713 3.522464 3.120952 -1.286488 3.522465 3.120952 -1.286488 -3.103486 4.625099 7.894435 62.610667 29.078349 144.369036 -37.410264 11.367971 112.255049 68.121031 7.998624 11.29195 6.470391 -8.646128 2.228419 89.941272 72.103052 32.184592 -15.396143 -8.376105 -156.280463 83.905542 -15.963775 41.667285 -22.369865 -3.790757 0.172482 -16.77019 -2.853919 -0.009744
139.117437280267 82.726163105243 -159.357985478668 -10.694343 -61.962682 -74.938371 13.227873 -14.324851 -32.019091 -3.25302 9.548981 51.908922 0.291652 5.385977 0.253425 -45.018652 20.800774 -52.798147 -10.950975 -3.998827 49.959904 11.344997 -6.997123 2.64137 1.084709 1.109808 -0.368791 2.94986 3.049318 -0.958648 2.949859 3.049318 -0.958648 -4.365638 4.922957 6.271805 61.700917 28.823092 146.183937 -38.856769 8.648803 111.1101 68.979578 8.230795 14.969967 5.849444 -8.224832 1.022287 88.039571 74.154497 33.919041 -18.817094 -6.920821 -157.099063 85.5688 -19.615749 41.413501 -22.457144 -4.53027 -0.51743 -16.837897 -3.384109 -0.555671
